# xmcd CD database file
#
# Track frame offsets:
#	150
#	13370
#	30892
#	45540
#	62895
#	75552
#	96022
#	113672
#	124382
#	144775
#	157297
#
# Disc length: 2270 seconds
#
# Revision: 0
# Processed by: cddbd v1.5.1PL0 Copyright (c) Steve Scherf et al.
# Submitted via: CDex 1.51
#
DISCID=8a08dc0b
DTITLE=Cheryl Bentyne and The Harmony - Moonlight Serenade
DYEAR=2003
DGENRE=Jazz
TTITLE0=Moonlight Serenade
TTITLE1=Blue Prelude
TTITLE2=Alice in Wonderland
TTITLE3=Caravan
TTITLE4=How High The Moon
TTITLE5=Land of Make Believe
TTITLE6=Soft Strum Blues
TTITLE7=My One And Only Love
TTITLE8=For Claudio
TTITLE9=Tull Tales
TTITLE10=Since First I Saw Your Face
EXTD=YEAR: 2003
EXTT0=
EXTT1=
EXTT2=
EXTT3=
EXTT4=
EXTT5=
EXTT6=
EXTT7=
EXTT8=
EXTT9=
EXTT10=
PLAYORDER=
